<svg width="38" height="31" viewBox="0 0 38 31" fill="none" xmlns="http://www.w3.org/2000/svg">
<path d="M31.0848 13.4179V12.3603C31.0848 9.05544 29.7958 5.94883 27.54 3.5693C25.2843 1.32196 22.1907 0 18.9681 0C15.7456 0 12.7164 1.32196 10.3962 3.63539C8.2049 5.94883 6.91589 9.12153 6.91589 12.4264V13.484C6.07803 13.6162 5.30463 14.0128 4.78903 14.6738C4.20897 15.2026 3.88672 16.0618 3.88672 16.9211V23.2665C3.88672 23.7292 3.95117 24.1919 4.14452 24.6546C4.33787 25.0512 4.53122 25.4478 4.85348 25.7782C5.17573 26.1087 5.56243 26.3731 5.94913 26.5714C6.40029 26.7697 6.85144 26.8358 7.30259 26.8358H7.88265V29.9424C7.88265 30.2068 8.01155 30.4712 8.2049 30.6695C8.39825 30.8678 8.65605 31 8.91386 31H18.9681C19.2259 31 19.4837 30.8678 19.6771 30.6695C19.8704 30.4712 19.9993 30.2068 19.9993 29.9424C19.9993 29.678 19.8704 29.4136 19.6771 29.2153C19.4837 29.0171 19.2259 28.8849 18.9681 28.8849H9.94506V26.8358H11.4919C11.7497 26.8358 12.0075 26.7036 12.2008 26.5053C12.3942 26.307 12.5231 26.0426 12.5231 25.7782V14.4755C12.5231 14.2111 12.3942 13.9467 12.2008 13.7484C12.0075 13.5501 11.7497 13.4179 11.4919 13.4179H8.91386V12.3603C8.91386 9.65032 9.94506 7.0064 11.8786 5.08955C13.7476 3.17271 16.3257 2.04904 18.9681 2.04904C21.6106 2.04904 24.1886 3.10661 26.0577 5.08955C27.9267 7.0064 29.0224 9.65032 29.0224 12.3603V13.4179H26.5088C26.251 13.4179 25.9932 13.5501 25.7999 13.7484C25.6065 13.9467 25.4776 14.2111 25.4776 14.4755V25.8443C25.4776 26.1087 25.6065 26.3731 25.7999 26.5714C25.9932 26.7697 26.251 26.9019 26.5088 26.9019H30.6337C31.536 26.9019 32.4383 26.5053 33.0828 25.8443C33.7273 25.1834 34.114 24.258 34.114 23.3326V16.9872C34.114 16.1279 33.7917 15.2687 33.2761 14.6077C32.6961 13.9467 31.9227 13.5501 31.0848 13.4179ZM10.4607 24.7868H7.36704C6.98034 24.7868 6.59364 24.6546 6.33584 24.3241C6.07803 24.0597 5.88468 23.6631 5.88468 23.2665V16.9211C5.88468 16.5245 6.01358 16.1279 6.33584 15.8635C6.59364 15.5991 6.98034 15.4009 7.36704 15.4009H10.4607V24.7868ZM32.116 23.3326C32.116 23.7292 31.9871 24.1258 31.6649 24.3902C31.4071 24.6546 31.0204 24.8529 30.6337 24.8529H27.54V15.4669H30.6337C31.0204 15.4669 31.4071 15.5991 31.6649 15.9296C31.9227 16.194 32.116 16.5906 32.116 16.9872V23.3326Z" fill="#636363"/>
<path d="M18.9686 16.7891C18.9686 16.7891 19.6131 15.8638 20.8377 15.8638C21.9333 15.8638 22.7067 16.8552 22.7067 17.9789C22.7067 19.3009 21.6755 20.8211 18.9041 22.2092C16.1972 20.8211 15.1016 19.3009 15.1016 17.9789C15.1016 16.8552 15.875 15.8638 16.9706 15.8638C18.3885 15.8638 18.9686 16.7891 18.9686 16.7891Z" stroke="#636363" stroke-width="2" stroke-miterlimit="10" stroke-linecap="round" stroke-linejoin="round"/>
</svg>
