<?xml version="1.0" encoding="UTF-8"?>
<svg xmlns="http://www.w3.org/2000/svg" width="25" height="22" viewBox="0 0 25 22" fill="none">
  <path d="M15.0745 11.5183C14.2518 10.8061 13.1636 10.4091 12.0336 10.4091C10.9036 10.4091 9.81777 10.8061 8.99947 11.5183L5.34543 14.6946C3.25078 16.4442 4.776 19.7889 7.6106 19.6583C9.14799 19.6205 10.3945 18.8986 12.0559 18.9261C13.777 18.8986 15.0577 19.5345 16.6031 19.6583C19.3895 19.7167 20.8194 16.4099 18.7442 14.6946L15.0745 11.5183ZM21.3677 6.85021C19.9344 6.5924 18.8439 8.05333 18.5627 9.31145C17.7196 13.2061 21.8394 13.9486 22.7916 10.1708C23.1804 8.55177 22.5534 7.09084 21.3677 6.85021ZM15.3029 8.95395C16.7279 8.95395 17.8821 7.46896 17.8765 5.64709C17.7206 1.26086 12.8381 1.26086 12.7128 5.64709C12.7183 7.46896 13.8816 8.95395 15.3029 8.95395ZM5.49773 9.31145C5.21263 8.05333 4.10942 6.5924 2.6777 6.85021C0.0245859 7.46552 1.16544 12.6527 3.76048 12.6664C5.23035 12.6217 5.90431 11.0577 5.49773 9.31145ZM8.75538 8.95395C10.1766 8.95395 11.3308 7.46896 11.3253 5.64709C11.1731 1.26086 6.29062 1.26086 6.16153 5.64709C6.16709 7.46896 7.33038 8.95395 8.75538 8.95395Z" fill="#ED1D24"></path>
</svg>
